<?xml version="1.0" standalone="no"?>
<!DOCTYPE svg PUBLIC "-//W3C//DTD SVG 1.1//EN" "http://www.w3.org/Graphics/SVG/1.1/DTD/svg11.dtd" >
<svg xmlns="http://www.w3.org/2000/svg">
<metadata>Generated by IcoMoon</metadata>
<defs>
<font id="icomoon" horiz-adv-x="1024">
<font-face units-per-em="1024" ascent="960" descent="-64" />
<missing-glyph horiz-adv-x="1024" />
<glyph unicode="&#x20;" horiz-adv-x="512" d="" />
<glyph unicode="&#xe900;" glyph-name="wizard-check" d="M284.287 63.79l-271.051 286.727c-17.647 18.679-17.647 48.943 0 67.61s46.256 18.667 63.903 0l244.69-169.947 625.022 584.041c17.658 18.667 46.267 18.667 63.914 0s17.647-48.932 0-67.598l-662.574-700.892c-8.857-9.298-20.415-13.953-31.985-13.953-11.559 0-23.128 4.655-31.918 14.012z" />
<glyph unicode="&#xe901;" glyph-name="nro_5" d="M486.874-63.996c204.799 0 359.12 154.321 359.12 340.371 0 193.262-129.802 328.832-340.371 328.832h-128.361v197.589h330.275c15.864 0 28.844 12.98 28.844 28.844v100.958c0 14.423-12.98 27.403-28.844 27.403h-468.732c-17.307 0-28.844-12.98-28.844-27.403v-438.444c0-24.519 15.864-51.921 46.152-51.921h229.319c116.822 0 178.839-74.997 178.839-165.859 0-93.746-70.67-175.955-171.629-175.955-89.42 0-149.994 49.036-191.819 83.65-11.538 10.096-25.96 7.212-36.056-1.443l-73.555-73.555c-18.749-17.307-17.307-27.403 2.884-50.479 36.056-44.71 132.687-122.592 292.776-122.592z" />
<glyph unicode="&#xe902;" glyph-name="nro_4" d="M744.204-63.998c15.864 0 28.845 12.981 28.845 28.845l-1.442 186.051h118.264c17.307 0 28.845 14.422 28.845 28.845v99.515c0 14.422-11.538 25.96-28.845 25.96h-118.264v625.938c0 15.864-12.981 28.845-28.845 28.845h-70.67c-18.749 0-27.403-4.327-37.499-15.864l-510.558-620.169c-12.981-14.422-18.749-30.288-18.749-50.479v-93.746c0-14.422 12.981-28.845 28.845-28.845h458.636v-186.051c0-15.864 14.422-28.845 28.845-28.845h122.592zM598.535 300.892h-294.22v2.885l291.335 356.237h2.885v-359.121z" />
<glyph unicode="&#xe903;" glyph-name="nro_3" d="M498.511-64.001c201.955 0 337.066 119.467 337.066 285.867 0 129.422-98.133 207.644-176.356 237.511v5.689c65.422 29.867 150.756 99.556 150.756 226.134 0 164.978-142.222 268.8-312.889 268.8-140.801 0-231.822-75.378-274.489-129.422-9.956-11.378-12.8-28.444 0-38.4l71.112-66.845c12.8-11.378 29.867-9.956 39.822 1.423 24.178 29.867 71.112 69.689 147.911 69.689 73.956 0 142.222-54.045 142.222-133.689 0-75.378-61.156-133.689-182.044-133.689h-82.489c-17.067 0-27.022-9.956-27.022-29.867v-92.444c0-17.067 11.378-28.444 27.022-28.444h82.489c132.267 0 201.955-56.889 201.955-150.756 0-75.378-65.422-132.267-155.022-132.267s-140.801 39.822-180.623 79.644c-11.378 11.378-24.178 11.378-36.978 0l-75.378-72.533c-8.533-9.956-9.956-25.6-1.423-36.978 32.711-36.978 122.311-129.422 304.355-129.422z" />
<glyph unicode="&#xe904;" glyph-name="nro_2" d="M801.173-64c15.865 0 28.845 12.981 28.845 28.845v102.4c0 14.422-12.981 27.403-28.845 27.403h-317.296v2.885c77.882 99.515 190.378 237.972 252.394 327.392 57.69 83.651 99.515 142.783 99.515 239.414 0 160.090-118.265 295.662-331.719 295.662-175.955 0-292.778-145.667-292.778-145.667-10.096-11.538-7.211-30.288 1.442-38.941l72.112-70.67c11.538-12.981 27.403-12.981 40.383 0 33.171 36.057 95.189 86.537 165.859 86.537 106.727 0 157.206-67.786 157.206-134.13 0-50.479-28.845-108.169-74.997-164.417-95.189-125.477-272.586-356.237-373.545-480.271-4.327-5.769-11.538-17.307-11.538-33.171v-14.422c0-15.865 11.538-28.845 27.403-28.845h585.556z" />
<glyph unicode="&#xe905;" glyph-name="nro_1" d="M662.845-63.999c16.091 0 27.794 13.166 27.794 29.257v966.949c0 14.628-11.703 27.794-27.794 27.794h-76.069c-20.48 0-36.571-5.851-51.2-19.017l-187.245-157.988c-13.166-10.24-16.091-16.091-14.628-32.183l8.777-73.143c1.463-14.628 16.091-23.406 30.72-20.48l131.657 29.257v-721.189c0-16.091 11.703-29.257 29.257-29.257h128.731z" />
<glyph unicode="&#xe906;" glyph-name="home" d="M512-63.294c282.094 0 512 228.496 512 512s-229.906 510.589-512 510.589-512-228.496-512-510.589 229.906-512 512-512zM512 898.644c249.653 0 451.35-201.697 451.35-451.35s-201.697-451.35-451.35-451.35-451.35 203.107-451.35 452.76 201.697 449.939 451.35 449.939zM301.84 478.325v-270.809h421.729v270.809l40.904-33.851 38.082 46.546-290.556 236.959-289.146-236.959 38.082-46.546 40.904 33.851zM662.92 527.691v-259.526h-301.84v259.526l150.92 122.71 150.92-122.71z" />
<glyph unicode="&#xe907;" glyph-name="phone" d="M717.97 960h-411.94c-46.811 0-84.261-37.449-84.261-84.261v-855.478c0-46.811 37.449-84.261 84.261-84.261h411.94c46.811 0 84.261 37.449 84.261 84.261v855.478c0 46.811-38.62 84.261-84.261 84.261zM511.999-12.507c-22.235 0-39.79 17.555-39.79 39.79s17.555 39.79 39.79 39.79c22.235 0 39.79-17.555 39.79-39.79-1.171-22.235-18.724-39.79-39.79-39.79zM719.14 139.63c0-14.044-11.703-25.746-25.746-25.746h-362.789c-14.044 0-25.746 11.703-25.746 25.746v681.105c0 14.044 11.703 25.746 25.746 25.746h362.789c14.044 0 25.746-11.703 25.746-25.746v-681.105zM511.999 497.737c49.152 0 88.942 45.642 88.942 101.815s-39.79 101.815-88.942 101.815-90.112-45.642-90.112-101.815 40.96-101.815 90.112-101.815zM657.115 374.858c-8.192 24.576-17.555 49.152-32.768 70.217-12.873 18.724-39.79 50.322-65.537 37.449-10.533-4.682-26.917-11.703-46.811-11.703s-35.109 5.851-46.811 11.703c-47.982 23.406-88.942-74.899-98.304-107.667l-12.873-43.301c-5.851-19.895 3.511-42.131 21.065-49.152 46.811-18.724 92.453-24.576 134.582-24.576 1.171 0 1.171 0 2.34 0s1.171 0 2.34 0c42.131 0 87.772 5.851 134.582 24.576 17.555 7.022 25.746 29.257 21.065 49.152l-12.873 43.301z" />
<glyph unicode="&#xe908;" glyph-name="credit" d="M64.894 360.010v236.477h678.634v-48.396c19.798 4.4 38.497 6.599 59.394 6.599h5.5v197.981c0 49.495-39.597 89.091-89.091 89.091h-630.239c-49.495 0-89.091-39.597-89.091-89.091v-393.762c0-49.495 39.597-89.091 89.091-89.091h433.357v5.5c0 20.898 2.199 39.597 6.599 59.394h-439.957c-14.299-1.1-24.197 10.998-24.197 25.297zM64.894 752.671c0 14.299 10.998 25.297 25.297 25.297h629.139c14.299 0 25.297-10.998 25.297-25.297v-52.795h-679.734v52.795zM135.287 462.299c-5.5 0-9.899-4.4-9.899-9.899v-49.495c0-5.5 4.4-9.899 9.899-9.899h84.692c5.5 0 9.899 4.4 9.899 9.899v49.495c0 5.5-4.4 9.899-9.899 9.899h-84.692zM284.873 462.299c-5.5 0-9.899-4.4-9.899-9.899v-49.495c0-5.5 4.4-9.899 9.899-9.899h85.792c5.5 0 9.899 4.4 9.899 9.899v49.495c0 5.5-4.4 9.899-9.899 9.899h-85.792zM522.449 462.299h-85.792c-5.5 0-9.899-4.4-9.899-9.899v-49.495c0-5.5 4.4-9.899 9.899-9.899h85.792c5.5 0 9.899 4.4 9.899 9.899v49.495c-1.1 6.599-5.5 9.899-9.899 9.899zM802.922 496.396c-122.088 0-221.079-98.99-221.079-221.079s98.99-221.079 221.079-221.079 221.079 98.99 221.079 221.079-100.090 221.079-221.079 221.079zM906.312 310.514l-111.090-111.090c-5.5-5.5-13.199-8.799-20.898-8.799s-15.398 3.299-20.898 8.799l-56.095 54.995c-12.099 12.099-12.099 29.697 0 40.696 12.099 12.099 29.697 12.099 40.696 0l34.096-34.096 90.191 90.191c12.099 12.099 29.697 12.099 40.696 0 12.099-12.099 14.299-30.797 3.299-40.696z" />
<glyph unicode="&#xe909;" glyph-name="check" d="M314.742 329.445l-112.73 164.398c-37.576 51.668-234.854-84.547-197.277-136.215l211.368-300.612c37.576-51.668 112.73-65.759 164.398-28.182 14.091 9.394 28.182 23.486 37.576 37.576v0c0 0 0 0 0 0 4.697 4.697 4.697 9.394 9.394 14.091 42.273 93.941 272.43 568.347 596.529 807.897 0 0-408.645-9.394-709.259-558.952z" />
<glyph unicode="&#xe90a;" glyph-name="facebook" d="M511.318 956.584c-283.001 0-511.318-229.682-511.318-511.318 0-255.658 187.301-467.567 432.021-505.849v356.828h-129.88v149.020h129.88v113.474c0 128.513 76.56 199.605 192.769 199.605 56.053 0 114.841-9.57 114.841-9.57v-125.779h-64.257c-64.257 0-83.396-39.648-83.396-79.295v-95.701h142.184l-23.241-147.653h-118.943v-358.195c244.721 38.281 432.021 250.189 432.021 505.849-1.367 278.899-229.682 508.583-512.684 508.583z" />
<glyph unicode="&#xe90b;" glyph-name="exclamation" d="M512 960c-283.007 0-512-229.015-512-512 0-283.007 229.015-512 512-512 283.007 0 512 229.015 512 512 0 283.007-229.015 512-512 512zM512 16c-238.785 0-432 193.231-432 432 0 238.785 193.23 432 432 432 238.785 0 432-193.23 432-432 0-238.785-193.231-432-432-432zM512 702.25c-22.091 0-40-17.908-40-40v-257.586c0-22.091 17.908-40 40-40s40 17.908 40 40v257.586c0 22.091-17.908 40-40 40zM512 207.685c29.824 0 54 24.176 54 54s-24.176 54-54 54c-29.824 0-54-24.176-54-54s24.176-54 54-54z" />
<glyph unicode="&#xe90c;" glyph-name="instagram" d="M632.311 692.039h-240.621c-68.358 0-124.411-56.053-124.411-124.411v-239.253c0-68.358 56.053-124.411 124.411-124.411h239.253c68.358 0 124.411 56.053 124.411 124.411v240.621c0 68.358-54.686 123.044-123.044 123.044zM514.734 301.030c-82.030 0-147.654 66.991-147.654 147.654 0 82.030 66.991 147.654 147.654 147.654 82.030 0 147.654-66.991 147.654-147.654 0-82.030-66.991-147.654-147.654-147.654zM670.592 571.728c-19.14 0-35.546 16.406-35.546 35.546s16.406 35.546 35.546 35.546c19.14 0 35.546-16.406 35.546-35.546 0-20.507-16.406-35.546-35.546-35.546zM514.734 543.018c-51.953 0-94.334-42.382-94.334-94.334s42.382-94.334 94.334-94.334 94.334 42.382 94.334 94.334c0 51.953-42.382 94.334-94.334 94.334zM512 960.003c-283.003 0-511.319-229.683-511.319-511.319 0-283.003 228.316-512.686 511.319-512.686s511.319 229.683 511.319 511.319c0 283.003-228.316 512.686-511.319 512.686zM812.777 328.373c0-99.803-80.663-180.466-180.466-180.466h-240.621c-98.436 1.367-180.466 82.030-180.466 180.466v240.621c0 99.803 80.663 180.466 180.466 180.466h239.253c99.803 0 181.833-82.030 181.833-180.466v-240.621z" />
<glyph unicode="&#xe90d;" glyph-name="linkedin" d="M512 960.003c-282.386 0-512.003-229.617-512.003-512.003s229.617-512.003 512.003-512.003c282.386 0 512.003 229.617 512.003 512.003s-229.617 512.003-512.003 512.003zM385.069 219.809h-105.538v342.286h105.538v-342.286zM332.299 606.307c-34.229 0-62.753 28.524-62.753 62.753s28.524 62.753 62.753 62.753c34.229 0 62.753-28.524 62.753-62.753s-28.524-62.753-62.753-62.753zM781.55 219.809h-104.112c0 0 0 129.783 0 179.701s-18.541 77.014-57.048 77.014c-42.786 0-64.178-28.524-64.178-77.014 0-52.769 0-179.701 0-179.701h-101.259v342.286h101.259v-45.638c0 0 29.95 57.048 102.686 57.048s124.079-44.212 124.079-135.488c-1.426-92.702-1.426-218.207-1.426-218.207z" />
<glyph unicode="&#xe90e;" glyph-name="tcs" d="M335.262 914.814c0 10.757 8.666 19.502 19.363 19.502h408.346c10.697 0 19.363-8.744 19.363-19.502l51.197-190.59h-560.789l62.517 190.59zM758.846 203.841c-105.768 14.912-113.89 38.859-114.45 43.513-3.15 26.491 79.482 78.249 158.66 109.958 2.35 0.95 4.221 2.464 5.82 4.235h13.287c12.088 0 21.905 9.872 21.905 22.062v67.121h43.922c12.104 0 21.905 9.872 21.905 22.062v229.368c0 12.191-9.801 22.062-21.905 22.062h-16.629l-58.808 213.731c0 12.175-9.817 22.046-21.905 22.046h-461.959c-12.104 0-21.905-9.872-21.905-22.046l-70.112-213.731h-23.536c-12.104 0-21.905-9.872-21.905-22.062v-229.368c0-12.191 9.801-22.062 21.905-22.062h36.679v-54.93c-144.43-63.788-150.697-116.045-148.875-131.231 4.269-35.799 49.31-58.538 141.744-71.582 86.805-12.239 136.691-35.316 136.899-63.272 0.368-48.537-128.728-122.148-246.68-140.636-8.73-1.369-14.71-9.614-13.351-18.391 1.231-7.955 8.043-13.64 15.781-13.64 0.815 0 1.647 0.064 2.478 0.193 112.020 17.569 274.357 93.596 273.75 172.715-0.352 47.652-55.674 79.586-164.432 94.933-105.752 14.912-113.89 38.859-114.434 43.513-2.75 23.013 59.256 65.076 127.497 96.527 3.358-2.11 7.275-3.382 11.528-3.382h56.729c12.104 0 21.905 9.872 21.905 22.062v67.121h393.172v-67.121c0-5.588 2.127-10.629 5.516-14.51-132.278-61.211-138.146-110.843-136.387-125.594 4.269-35.783 49.31-58.522 141.744-71.566 86.805-12.255 136.691-35.316 136.899-63.272 0.368-48.537-128.728-122.148-246.68-140.636-8.73-1.369-14.71-9.614-13.351-18.407 1.231-7.939 8.043-13.624 15.781-13.624 0.815 0 1.647 0.064 2.478 0.193 112.020 17.569 274.357 93.58 273.751 172.715-0.353 47.652-55.692 79.586-164.434 94.933v0z" />
<glyph unicode="&#xe90f;" glyph-name="srs" d="M341.913 519.357c104.685 0 189.551 84.866 189.551 189.567 0 104.685-84.866 189.551-189.551 189.551-104.699 0-189.567-84.866-189.567-189.551 0-104.699 84.866-189.567 189.567-189.567zM724.677 674.941c52.197 0 94.523 42.309 94.523 94.523 0 52.197-42.325 94.523-94.523 94.523s-94.523-42.325-94.523-94.523c0-52.213 42.325-94.523 94.523-94.523zM666.912 611.819c-64.839-74.739-131.281-152.945-131.281-152.945l91.040-193.531 160.961 218.971c0 0 6.701 131.91-120.721 127.506zM210.006 405.787c0 0-134.554-189.991-205.524-272.794-25.127-79.84 63.582-93.152 63.582-93.152s133.073 174.474 165.589 218.837c32.531 44.347 97.595 19.22 97.595 19.22l130.111-55.075-84.283 163.005c-89.671 77.445-167.070 19.96-167.070 19.96zM500.037 445.618c-8.13 20.182-30.833 29.854-50.617 21.541-19.831-8.297-29.281-31.387-21.15-51.553l158.708-393.57c6.161-15.282 20.637-24.512 35.907-24.512 4.903 0 9.9 0.948 14.711 2.971 19.831 8.281 29.281 31.371 21.15 51.553l-158.708 393.57zM1018.724 724.368c-9.623 14.006-29.104 17.816-43.531 8.458l-173.511-112.307c-14.427-9.343-18.336-28.271-8.713-42.276 6.043-8.809 16.013-13.58 26.153-13.58 5.981 0 12.041 1.662 17.394 5.121l173.495 112.322c14.427 9.327 18.336 28.256 8.713 42.261z" />
<glyph unicode="&#xe910;" glyph-name="next" d="M274.913 57.578c-23.826-26.747-24.861-71.731-2.072-99.694 11.395-14.589 27.969-21.884 43.508-21.884 14.503 0 30.041 6.079 41.436 19.452l391.569 441.328c11.395 13.374 18.646 31.61 18.646 51.063s-6.215 37.689-18.646 51.063l-391.569 441.328c-23.826 26.747-62.154 26.747-84.943-2.432-22.79-27.963-22.79-72.947 2.072-99.694l345.989-390.265-345.989-390.265z" />
<glyph unicode="&#xe911;" glyph-name="engine" d="M974.779 189.070c-7.901-7.154-23.234-18.601-40.966-19.061-13.93-0.435-27.651 6.035-41.471 19.061v53.998c0 13.736-11.026 24.884-24.612 24.884h-90.092c-13.585 0-24.612-11.148-24.612-24.884v-107.075h-389.052l-128.511 129.919c-4.614 4.665-10.866 7.291-17.401 7.291h-70.66v308.112c1.427 5.462 5.131 12.877 14.656 12.877h56.583c9.623 0 18.373 5.673 22.384 14.519l24.612 54.371h375.356v-98.901c0-13.736 11.026-24.884 24.612-24.884h110.519v-55.628c0-13.736 11.026-24.884 24.612-24.884h80.85c13.598 0 24.612 11.148 24.612 24.884v55.628h68.581v-350.229zM999.391 589.066h-117.805c-13.585 0-24.612-11.136-24.612-24.884v-55.628h-31.626v55.628c0 13.748-11.014 24.884-24.612 24.884h-110.519v98.901c0 13.736-11.014 24.884-24.612 24.884h-164.063v47.155h122.493c13.598 0 24.612 11.136 24.612 24.884 0 13.736-11.014 24.884-24.612 24.884h-355.728c-13.585 0-24.612-11.148-24.612-24.884 0-13.748 11.026-24.884 24.612-24.884h122.481v-47.155h-140.965c-9.623 0-18.373-5.673-22.372-14.532l-24.612-54.359h-40.782c-42.997 0-60.373-36.517-63.548-55.827-0.222-1.356-0.332-2.725-0.332-4.093v-124.967h-48.953v133.141c0 13.736-11.014 24.884-24.612 24.884-13.585 0-24.612-11.148-24.612-24.884v-282.594c0-13.736 11.026-24.884 24.612-24.884 13.598 0 24.612 11.148 24.612 24.884v112.127h48.953v-173.428c0-13.736 11.014-24.884 24.612-24.884h85.083l128.498-129.919c4.614-4.665 10.879-7.291 17.401-7.291h423.865c13.598 0 24.612 11.148 24.612 24.884v107.075h40.868v-39.341c0-6.258 2.326-12.293 6.522-16.884 26.002-28.492 54.675-42.414 85.452-41.705 48.658 1.282 81.847 40.996 83.237 42.688 3.668 4.467 5.673 10.091 5.673 15.901v385.34c0 13.748-11.026 24.884-24.612 24.884v0zM334.15 475.787c6.082 0 11.477-2.006 16.175-5.994l9.225 10.934c-7.076 6.662-15.535 9.993-25.401 9.993-9.774 0-17.959-3.591-24.566-10.773-6.607-7.17-9.934-16.011-9.957-26.537 0-10.749 3.316-19.689 9.934-26.835 6.619-7.133 14.816-10.724 24.589-10.761 9.889 0 18.359 3.331 25.401 9.993l-9.225 10.934c-4.516-3.963-9.877-5.944-16.084-5.944s-11.215 2.043-15.033 6.142c-3.807 4.086-5.727 9.622-5.761 16.581 0 6.489 1.898 11.813 5.704 15.974 3.795 4.161 8.791 6.253 14.998 6.291zM420.613 460.731h-32.239v29.94h-13.843v-74.856h13.843v30.942h32.239v-30.942l13.843 0.049v74.856h-13.843zM449.437 415.815h59.816v13.983h-43.51v17.030h32.694v13.933h-32.694v15.977h43.618v13.983l-59.925-0.049zM558.866 415.815c9.889 0 18.359 3.331 25.401 9.995l-9.225 10.924c-4.516-3.951-9.877-5.945-16.084-5.945s-11.215 2.056-15.033 6.156c-3.807 4.087-5.727 9.611-5.761 16.571 0 6.49 1.898 11.828 5.704 15.977 3.795 4.161 8.791 6.267 14.998 6.304 6.082 0 11.477-2.007 16.175-5.994l9.225 10.936c-7.076 6.651-15.535 9.982-25.401 9.982-9.774 0-17.959-3.592-24.566-10.762s-9.934-16.014-9.957-26.541c0-10.75 3.316-19.705 9.934-26.839 6.619-7.146 14.816-10.738 24.589-10.762zM613.519 448.172l27.102-32.357h18.552l-33.766 39.948 27.916 34.957h-16.028l-23.776-29.967v29.967h-14.271v-74.906h14.271zM284.645 295.965h59.816v13.983h-43.51v17.030h32.694v13.933h-32.694v15.977h43.618v13.983l-59.925-0.049zM406.064 323.927l-42.054 46.944h-4.46v-74.906h13.411v46.437l41.599-46.437h4.914v74.906h-13.411zM468.979 355.937c6.082 0 11.477-2.006 16.175-5.994l9.225 10.934c-7.065 6.662-15.535 9.993-25.401 9.993-9.774 0-17.959-3.591-24.566-10.773-6.607-7.17-9.934-16.011-9.957-26.537 0-10.749 3.316-19.689 9.934-26.835 6.619-7.133 14.816-10.724 24.589-10.761 9.9 0 18.359 3.331 25.401 9.993v34.945h-23.046v-13.98l9.214 0.049v-12.829c-2.675-2.13-6.505-3.195-11.477-3.195-6.207 0-11.215 2.043-15.033 6.142-3.807 4.086-5.727 9.622-5.761 16.581 0 6.489 1.898 11.813 5.704 15.974 3.795 4.161 8.791 6.253 14.998 6.291zM509.362 295.965h14.981v74.906h-14.981zM585.837 323.927l-42.054 46.944h-4.46v-74.906h13.411v46.437l41.599-46.437h4.914v74.906h-13.411zM629.211 295.965h59.816v13.983h-43.51v17.030h32.694v13.933h-32.694v15.977h43.618v13.983l-59.925-0.049z" />
<glyph unicode="&#xe912;" glyph-name="dct" d="M298.127 512.811c21.474 0 38.886 20.315 38.886 45.367s-17.412 45.367-38.886 45.367c-21.474 0-38.886-20.315-38.886-45.367s17.412-45.367 38.886-45.367zM414.785 512.811c21.474 0 38.886 20.315 38.886 45.367s-17.412 45.367-38.886 45.367c-21.474 0-38.886-20.315-38.886-45.367s17.412-45.367 38.886-45.367zM531.443 512.811c21.474 0 38.886 20.315 38.886 45.367s-17.412 45.367-38.886 45.367c-21.474 0-38.886-20.315-38.886-45.367s17.412-45.367 38.886-45.367zM661.063 512.811c21.474 0 38.886 20.315 38.886 45.367s-17.412 45.367-38.886 45.367c-21.474 0-38.886-20.315-38.886-45.367s17.412-45.367 38.886-45.367zM298.127 292.457c21.474 0 38.886 20.315 38.886 45.367s-17.412 45.367-38.886 45.367c-21.474 0-38.886-20.315-38.886-45.367s17.412-45.367 38.886-45.367zM414.785 383.191c-21.474 0-38.886-20.315-38.886-45.367s17.412-45.367 38.886-45.367c21.474 0 38.886 20.315 38.886 45.367s-17.412 45.367-38.886 45.367zM531.443 383.191c-21.474 0-38.886-20.315-38.886-45.367s17.412-45.367 38.886-45.367c21.474 0 38.886 20.315 38.886 45.367s-17.412 45.367-38.886 45.367zM661.063 383.191c-21.474 0-38.886-20.315-38.886-45.367s17.412-45.367 38.886-45.367c21.474 0 38.886 20.315 38.886 45.367s-17.412 45.367-38.886 45.367zM375.899 396.153c21.474 0 38.886 20.315 38.886 45.367s-17.412 45.367-38.886 45.367c-21.474 0-38.886-20.315-38.886-45.367s17.412-45.367 38.886-45.367zM492.557 396.153c21.474 0 38.886 20.315 38.886 45.367s-17.412 45.367-38.886 45.367c-21.474 0-38.886-20.315-38.886-45.367s17.412-45.367 38.886-45.367zM609.215 396.153c21.474 0 38.886 20.315 38.886 45.367s-17.412 45.367-38.886 45.367c-21.474 0-38.886-20.315-38.886-45.367s17.412-45.367 38.886-45.367zM226.363 260.734v374.534h525.676v-374.534h-525.676zM1017.701 372.512l-93.995 56.935c-1.829 1.155-3.83 1.989-6.081 1.989h-105.506v29.090h100.247l77.249-50.429c6.047-3.953 13.797-1.655 17.318 5.145l15.352 29.628c3.509 6.788 1.463 15.488-4.584 19.44l-93.995 56.935c-1.829 1.155-3.83 1.989-6.081 1.989h-105.506v184.008h-652.271v-171.176h-145.502c-7.921 0-14.346-7.224-14.346-16.117v-38.829c0-8.905 6.424-16.117 14.346-16.117h145.502v-30.103h-145.502c-7.921 0-14.346-7.211-14.346-16.104v-38.842c0-8.905 6.424-16.117 14.346-16.117h145.502v-175.077h652.271v179.965h100.247l77.249-50.429c6.047-3.953 13.797-1.642 17.318 5.145l15.352 29.628c3.509 6.788 1.463 15.488-4.584 19.44v0z" />
<glyph unicode="&#xe913;" glyph-name="back" d="M749.087 838.422c23.826 26.747 24.862 71.731 2.072 99.694-11.395 14.589-27.969 21.884-43.508 21.884-14.503 0-30.041-6.079-41.436-19.452l-391.569-441.328c-11.395-13.374-18.646-31.61-18.646-51.063s6.215-37.689 18.646-51.063l391.569-441.328c23.826-26.747 62.154-26.747 84.943 2.432 22.79 27.963 22.79 72.947-2.072 99.694l-345.989 390.265 345.989 390.265z" />
<glyph unicode="&#xe914;" glyph-name="info" d="M509.867 6.4c-243.381 4.145-439.588 200.352-443.728 443.341l-0.005 0.392c4.145 243.381 200.352 439.588 443.341 443.728l0.392 0.005c243.381-4.145 439.588-200.352 443.728-443.341l0.005-0.392c-4.871-243.083-200.651-438.863-443.273-443.727l-0.46-0.007zM509.867 962.133c-282.769 0-512-229.231-512-512s229.231-512 512-512c282.769 0 512 229.231 512 512v0c0 282.769-229.231 512-512 512v0zM544 552.533v-278.528h68.267v-62.805h-200.021v62.805h63.488v210.261h-68.267v68.267zM475.733 689.067h68.267v-68.267h-68.267z" />
<glyph unicode="&#xe915;" glyph-name="abs" d="M511.999 94.205c-195.083 0-353.794 158.712-353.794 353.794s158.712 353.794 353.794 353.794c195.083 0 353.794-158.712 353.794-353.794s-158.712-353.794-353.794-353.794zM511.999 846.734c-219.859 0-398.734-178.875-398.734-398.734s178.875-398.734 398.734-398.734c219.859 0 398.734 178.875 398.734 398.734s-178.875 398.734-398.734 398.734zM127.014 694.263l-30.050 58.511c-60.923-84.232-96.964-187.593-96.964-299.268 0-122.535 43.322-235.139 115.39-323.37l30.274 55.141c-55.23 75.229-87.947 167.969-87.947 268.23 0 88.396 25.451 170.905 69.297 240.757zM917.268 765.856l-30.619-55.785c50.198-73.057 79.633-161.423 79.633-256.56 0-94.014-28.701-181.436-77.791-253.999h1.543l28.882-56.249c65.851 86.149 105.084 193.69 105.084 310.248 0 117.517-39.906 225.837-106.731 312.345zM362.434 439.839l20.013 50.033 19.489-50.033h-39.502zM368.576 524.984l-52.654-131.658h28.088l7.894 20.178h59.679l7.909-20.178 27.998 0.075-52.579 131.583h-26.335zM534.557 413.859h-43.007v32.206h43.277c12.164-0.344 18.396-4.733 18.695-13.167-0.299-12.508-6.621-18.859-18.964-19.039v0zM491.549 498.735h37.12c10.426-0.344 15.774-3.745 16.073-10.186-0.299-10.755-5.737-16.238-16.328-16.403h-36.866v26.589zM560.621 462.753c5.917 3.909 9.078 11.729 9.483 23.428-1.228 24.522-12.928 37.419-35.113 38.708h-69.866v-131.568l74.091-0.090c25.331 1.468 38.588 14.605 39.757 39.412-0.704 12.343-6.816 22.38-18.351 30.11v0zM683.507 461.344c-9.063 6.142-19.16 9.797-30.274 10.965-10.546 1.768-17.272 4.389-20.193 7.909-2.921 3.505-2.921 7.745 0 12.718s9.647 7.46 20.193 7.46c10.531 0 18.725-3.505 24.567-10.531l17.557 17.557c-5.858 5.858-12.149 10.246-18.874 13.167s-16.208 4.389-28.432 4.389c-10.531 0-20.792-3.52-30.769-10.576s-14.965-16.403-14.965-28.043c0-12.868 4.389-21.946 13.167-27.204 8.778-5.273 18.425-8.494 28.971-9.662 11.699-1.168 18.994-4.24 21.886-9.212 2.906-4.974 2.906-9.946 0-14.92-2.891-4.974-10.186-7.46-21.886-7.46-14.051 1.168-23.998 5.258-29.855 12.284l-17.542-17.557c5.842-5.858 12.868-10.531 21.062-14.036 8.194-3.52 18.396-5.273 30.634-5.273 12.868 0 24.147 3.805 33.824 11.415 9.692 7.61 14.53 16.673 14.53 27.204 0 13.467-4.539 23.263-13.601 29.405z" />
<glyph unicode="&#xe916;" glyph-name="minus" d="M768 469.334h-512c-47.104 0-85.333-38.229-85.333-85.333s38.229-85.333 85.333-85.333h512c47.104 0 85.333 38.229 85.333 85.333s-38.229 85.333-85.333 85.333z" />
<glyph unicode="&#xe917;" glyph-name="close" d="M21.424 938.577c28.563 28.565 74.876 28.565 103.44 0l387.138-387.138 387.138 387.138c28.568 28.565 74.872 28.565 103.437 0s28.565-74.876 0-103.44l-387.136-387.138 387.136-387.138c28.565-28.568 28.565-74.872 0-103.437s-74.869-28.565-103.437 0l-387.138 387.136-387.138-387.136c-28.563-28.565-74.876-28.565-103.44 0s-28.565 74.869 0 103.437l387.138 387.138-387.138 387.138c-28.565 28.563-28.565 74.876 0 103.44z" />
<glyph unicode="&#xe918;" glyph-name="tag-peso" d="M928.011 960c-1.114 0-2.214-0.047-3.322-0.141-6.541-0.539-152.762-13.961-207.705-120.586l-198.42 20.164c-48.086 4.883-95.211-11.922-129.281-46.047l-342.336-341.203c-62.227-62.336-62.203-163.729 0.047-226.032l262.57-262.789c31.539-31.558 72.915-47.366 114.149-47.366 40.664 0.006 81.196 15.379 112.015 46.163 15.617 15.61 15.633 40.922 0.024 56.544-15.601 15.622-40.922 15.629-56.539 0.026-30.883-30.854-81.618-30.336-113.078 1.158l-262.578 262.789c-31.125 31.148-31.133 81.844-0.093 112.938l342.343 341.211c17.071 17.094 40.641 25.5 64.672 23.063l304.221-30.922 3.962-38.875c-55.418-20.657-108.154-23.953-109.357-24.024-22.022-1.187-38.925-19.992-37.773-42.024 1.126-21.336 18.778-37.883 39.891-37.883 0.71 0 1.421 0.016 2.131 0.055 2.566 0.132 53.728 3.062 113.427 22.164l18.605-182.757c2.445-23.984-5.914-47.516-22.944-64.586l-195.046-192.189c-15.727-15.488-15.914-40.813-0.422-56.538 15.501-15.725 40.813-15.917 56.538-0.416l195.167 192.299c0.058 0.063 0.122 0.125 0.192 0.195 34.176 34.141 50.97 81.282 46.074 129.336l-21.229 208.375c26.893 15.742 49.562 34.289 67.686 55.43 34.611 40.399 52.147 89.242 52.109 145.164v1.594c0 52.774-42.925 95.711-95.699 95.711v0zM943.748 862.672c0.032-44.687-16.147-80.945-49.101-109.617l-3.712 36.445c-1.92 18.875-16.851 33.805-35.731 35.727l-46.374 4.711c40.922 39.062 108.538 48.617 120.614 50.039 8.013-0.734 14.304-7.492 14.304-15.688v-1.617zM619.728 374.235c-15.61-15.617-40.922-15.617-56.54 0s-15.617 40.93 0 56.54c4.266 4.266 5.039 9.211 4.938 12.609-0.156 5.461-2.539 10.765-6.703 14.922l-24.492 24.5c-6.351 6.351-14.524 9.898-23.008 9.992-5.953 0.054-14.445-1.485-22.172-9.219l-6.312-6.312c-13.032-13.023-13.508-34.547-1.055-47.008l25.906-25.898c21.227-21.227 33.078-49.235 33.391-78.876 0.305-30.056-11.281-58.376-32.648-79.732l-2.945-2.944c-21.61-21.619-49.446-32.397-77.461-32.397-23.797-0.006-47.711 7.802-68.078 23.309l-16.742-16.16c-7.758-7.482-17.766-11.2-27.758-11.2-10.468 0-20.93 4.083-28.773 12.218-15.336 15.891-14.876 41.203 1.015 56.531l14.985 14.464c-16.86 18.266-26.383 41.514-26.907 65.943-0.562 26.625 9.587 51.758 28.586 70.758 15.617 15.609 40.93 15.609 56.547 0 15.61-15.617 15.61-40.93 0-56.547-3.547-3.539-5.289-7.75-5.188-12.508 0.109-5.109 2.391-10.148 6.438-14.188l42.109-42.111c13.188-13.184 32.399-13.856 44.687-1.574l2.945 2.95c6.039 6.035 9.313 13.971 9.227 22.36-0.094 8.594-3.633 16.82-9.969 23.156l-25.914 25.907c-43.844 43.852-43.367 115.664 1.055 160.094l6.32 6.312c21.071 21.070 48.852 32.633 78.344 32.633h1.234c20.391-0.227 40.024-5.961 57.219-16.484l17.172 17.734c15.367 15.868 40.672 16.273 56.54 0.914 15.859-15.359 16.262-40.672 0.909-56.539l-16.956-17.508c11.369-16.211 17.795-35.266 18.383-55.149 0.787-27.047-9.267-52.438-28.328-71.492z" />
<glyph unicode="&#xe919;" glyph-name="comodo" d="M992.881 273.271l-2.090 2.081c-2.672 2.692-3.946 6.464-3.47 10.212 12.738 107.912 12.738 216.951 0 324.862-0.476 3.764 0.805 7.529 3.476 10.22 38.341 37.244 43.503 96.791 12.139 140.022-18.427 24.597-46.698 39.999-77.439 42.205-30.754 2.222-60.95-8.976-82.748-30.669l-4.181-4.155c-2.507-2.496-5.984-3.78-9.531-3.537-211.141 14.141-423.008 14.141-634.167 0-3.515-0.235-6.966 1.041-9.459 3.537l-2.090 1.988c-39.602 40.413-103.861 43.41-147.089 6.879-22.203-19.212-35.325-46.799-36.182-76.068-0.897-29.199 10.323-57.466 31.040-78.149l2.091-2.081c2.681-2.7 3.954-6.457 3.475-10.221-12.738-107.911-12.738-216.942 0-324.862 0.479-3.756-0.802-7.521-3.484-10.212-40.577-39.421-43.588-103.382-6.88-146.41 19.302-22.098 47.017-35.152 76.415-36.004 1.14 0 2.264-0.059 3.397-0.059 28.17 0.036 55.179 11.158 75.125 30.953l4.151 4.135c2.5 2.501 5.991 3.787 9.53 3.53 211.15-14.141 423.027-14.141 634.169 0 3.548 0.235 7.005-1.051 9.531-3.53l2.067-2.062c39.609-40.413 103.858-43.409 147.086-6.871 22.215 19.214 35.328 46.803 36.185 76.077 0.91 29.21-10.324 57.497-31.065 78.19zM961.229 149.106c-27.301-22.644-67.538-20.43-92.138 5.091l-2.078 2.067c-10.717 10.652-25.545 16.184-40.655 15.157-209.35-14.024-419.41-14.024-628.753 0-15.112 1.028-29.941-4.504-40.656-15.157l-4.151-4.135c-12.91-12.855-30.6-19.808-48.864-19.197-18.257 0.611-35.436 8.726-47.457 22.409-22.753 27.177-20.52 67.233 5.11 91.721 11.408 11.328 16.928 27.248 14.978 43.166-12.375 104.813-12.375 210.705 0 315.518 1.966 15.91-3.562 31.844-14.978 43.169l-2.090 2.075c-12.91 12.858-19.884 30.467-19.27 48.638 0.613 18.165 8.766 35.28 22.509 47.244 11.746 10.19 26.834 15.761 42.418 15.66 18.68-0.093 36.568-7.552 49.729-20.77l2.068-2.051c10.732-10.659 25.545-16.177 40.656-15.167 209.359 14.025 419.414 14.025 628.771 0 15.109-1.041 29.938 4.493 40.636 15.167l4.152 4.125c13.571 13.507 32.374 20.457 51.524 19.056 19.132-1.401 36.708-11.027 48.148-26.366 19.338-27.273 15.756-64.525-8.462-87.626-11.404-11.317-16.936-27.25-14.969-43.16 12.362-104.821 12.362-210.705 0-315.527-1.955-15.91 3.571-31.828 14.969-43.162l2.090-2.078c12.919-12.85 19.896-30.466 19.291-48.629-0.623-18.176-8.779-35.282-22.526-47.249v0.012zM166.101 634.014c-10.764-2.708-17.281-13.586-14.569-24.292 27.227-106.128 27.227-217.357 0-323.486-1.863-6.965 0.188-14.384 5.362-19.424 5.173-5.047 12.666-6.932 19.624-4.929 6.958 1.985 12.305 7.558 13.987 14.57 28.879 112.552 28.879 230.513 0 343.066-2.72 10.713-13.649 17.202-24.404 14.494z" />
<glyph unicode="&#xe91a;" glyph-name="verification" d="M992.005 531.846c-8.87 14.18-17.254 27.578-20.39 39.305-3.373 12.639-2.848 28.98-2.285 46.284 0.902 27.804 1.926 59.318-13.875 86.635-16.026 27.699-44.051 42.603-68.774 55.752-15.091 8.025-29.344 15.604-38.298 24.562-8.96 8.956-16.538 23.21-24.563 38.297-13.152 24.728-28.051 52.75-55.757 68.776-27.315 15.805-58.822 14.789-86.63 13.878-17.306-0.558-33.651-1.090-46.285 2.286-11.73 3.137-25.124 11.518-39.307 20.391-23.962 14.991-51.124 31.988-83.841 31.988s-59.88-16.997-83.845-31.99c-14.18-8.873-27.578-17.257-39.307-20.391-12.639-3.376-28.979-2.844-46.284-2.286-27.802 0.907-59.316 1.927-86.633-13.878-27.7-16.026-42.603-44.051-55.754-68.776-8.025-15.088-15.606-29.341-24.562-38.297-8.956-8.954-23.207-16.535-38.297-24.56-24.725-13.149-52.748-28.053-68.776-55.754-15.805-27.317-14.781-58.831-13.88-86.635 0.562-17.303 1.093-33.647-2.286-46.285-3.137-11.73-11.516-25.124-20.391-39.305-14.989-23.964-31.986-51.126-31.986-83.843s16.997-59.88 31.992-83.847c8.873-14.181 17.255-27.578 20.391-39.305 3.376-12.637 2.846-28.982 2.284-46.282-0.903-27.808-1.927-59.322 13.878-86.637 16.026-27.699 44.051-42.605 68.774-55.75 15.090-8.026 29.341-15.603 38.299-24.563 8.956-8.954 16.535-23.206 24.562-38.298 13.149-24.73 28.053-52.749 55.754-68.774 27.318-15.808 58.826-14.79 86.635-13.882 17.303 0.563 33.647 1.094 46.284-2.285 11.73-3.136 25.124-11.514 39.307-20.39 23.962-14.989 51.124-31.987 83.841-31.987s59.88 16.998 83.845 31.987c14.18 8.877 27.578 17.261 39.307 20.397 12.637 3.373 28.976 2.842 46.282 2.285 27.802-0.915 59.322-1.933 86.637 13.875 27.699 16.026 42.598 44.051 55.75 68.774 8.026 15.091 15.61 29.344 24.563 38.298s23.206 16.538 38.298 24.563c24.723 13.146 52.749 28.051 68.774 55.75 15.808 27.322 14.784 58.835 13.882 86.637-0.563 17.306-1.094 33.645 2.285 46.285 3.136 11.73 11.514 25.124 20.39 39.305 14.989 23.964 31.987 51.126 31.987 83.843s-16.998 59.88-31.994 83.847zM940.748 396.231c-10.854-17.34-22.074-35.27-27.552-55.768-5.69-21.277-4.986-42.928-4.307-63.862 0.704-21.619 1.363-42.035-5.779-54.387-7.36-12.717-25.562-22.4-44.832-32.646-18.342-9.76-37.312-19.846-52.659-35.187-15.341-15.347-25.434-34.317-35.187-52.666-10.253-19.27-19.93-37.472-32.646-44.826-12.352-7.149-32.774-6.483-54.387-5.779-20.934 0.678-42.586 1.382-63.862-4.307-20.498-5.478-38.428-16.698-55.77-27.552-18.723-11.712-36.408-22.778-51.766-22.778s-33.042 11.066-51.766 22.778c-17.341 10.854-35.272 22.074-55.77 27.552-14.271 3.814-28.71 4.755-42.99 4.755-7.009 0-13.979-0.23-20.871-0.454-21.619-0.698-42.036-1.363-54.387 5.786-12.719 7.354-22.397 25.555-32.645 44.826-9.759 18.349-19.847 37.318-35.191 52.659-15.344 15.347-34.316 25.434-52.664 35.194-19.268 10.246-37.469 19.93-44.826 32.646-7.146 12.352-6.483 32.768-5.781 54.387 0.68 20.934 1.383 42.579-4.303 63.86-5.479 20.496-16.698 38.426-27.548 55.766-11.719 18.726-22.786 36.414-22.786 51.772s11.067 33.044 22.782 51.768c10.851 17.34 22.070 35.27 27.549 55.768 5.686 21.278 4.985 42.925 4.305 63.863-0.701 21.619-1.364 42.036 5.781 54.387 7.36 12.719 25.56 22.397 44.828 32.644 18.348 9.759 37.318 19.847 52.662 35.191s25.435 34.314 35.191 52.662c10.248 19.27 19.928 37.471 32.645 44.828 12.352 7.146 32.772 6.481 54.387 5.781 20.936-0.684 42.585-1.387 63.861 4.303 20.498 5.479 38.428 16.699 55.77 27.549 18.723 11.715 36.408 22.782 51.766 22.782s33.042-11.067 51.766-22.782c17.341-10.851 35.272-22.070 55.77-27.549 21.277-5.686 42.928-4.985 63.862-4.303 21.619 0.698 42.035 1.364 54.387-5.781 12.717-7.357 22.394-25.56 32.646-44.828 9.754-18.348 19.846-37.318 35.187-52.662 15.347-15.344 34.317-25.434 52.666-35.193 19.264-10.248 37.466-19.928 44.826-32.643 7.142-12.353 6.483-32.771 5.779-54.387-0.678-20.936-1.382-42.585 4.307-63.863 5.478-20.496 16.698-38.426 27.546-55.766 11.718-18.724 22.784-36.412 22.784-51.77s-11.066-33.044-22.778-51.768zM455.772 385.726l-83.654 83.652-42.758-42.758 125.549-125.552 239.291 229.718-41.882 43.627-196.547-188.686zM512 800.755c-194.51 0-352.756-158.246-352.756-352.756s158.246-352.755 352.756-352.755c194.508 0 352.755 158.246 352.755 352.755s-158.246 352.756-352.755 352.756zM512 155.717c-161.165 0-292.284 131.117-292.284 292.282s131.118 292.284 292.284 292.284c161.164 0 292.281-131.118 292.281-292.284s-131.117-292.282-292.281-292.282z" />
</font>
</defs>
</svg>
